<?xml version="1.0" encoding="utf-8"?>
<!-- Generator: Adobe Illustrator 27.0.1, SVG Export Plug-In . SVG Version: 6.00 Build 0)  -->
<svg version="1.1" id="Calque_1" xmlns="http://www.w3.org/2000/svg" xmlns:xlink="http://www.w3.org/1999/xlink" x="0px" y="0px"
	 viewBox="0 0 700 700" style="enable-background:new 0 0 700 700;" xml:space="preserve">
<style type="text/css">
	
		.st0{fill-rule:evenodd;clip-rule:evenodd;fill:none;stroke:#000000;stroke-width:11.7274;stroke-linecap:round;stroke-miterlimit:10;}
	.st1{clip-path:url(#SVGID_00000182502396697389366900000014757187264599453580_);}
	.st2{fill:none;stroke:#000000;stroke-width:3;stroke-linecap:round;stroke-miterlimit:10;}
</style>
<path class="st0" d="M370,230.3c28.7,0,51.9-23.2,51.9-51.9s-23.2-51.9-51.9-51.9s-51.9,23.2-51.9,51.9S341.3,230.3,370,230.3z
	 M288.9,375.6c0-21.7-17.6-39.3-39.3-39.3c-21.7,0-39.3,17.6-39.3,39.3s17.6,39.3,39.3,39.3S288.9,397.3,288.9,375.6z M291.7,475.2
	c-0.2-5.9,1.1-10.2,5.4-14.5c15.1-14.8,28-31.2,34.8-51.6c3.7-11,5.7-22.4,6.5-34c0.1-1.9-0.1-3.7-0.6-5.4c-1.1-3.7-5.8-7.7-6.9-8.2
	c-5.6-2.4-8-0.9-12,5.9c-5,8.7-9.2,17.8-14.3,26.5c-11.8,20.3-26.6,37.1-51.4,41.4c-4.2,0.7-8.9,0.7-13.2,0.5
	c-5.5-0.3-11.5-1.7-16.6-3.8c-19.8-7.9-32-26.8-45.6-42.1c-2.1-2.4-4.2-5-6.5-7.3c-3.9-3.8-8.1-6.1-13.5-4c-5.3,2.1-8,6.4-8.6,11.9
	c-0.5,4.7,1.4,9.4,3.1,13.7c3.6,9.1,9.3,17.6,15.3,25.2c2.4,3,4.9,6,7.4,8.9c4.6,5.3,9.4,10.4,14.4,15.4c4.5,4.6,9.1,9.9,14.4,13.6
	c2.6,1.8,6,8.3,6.2,12c0.8,15.5,1.7,25.3,2.4,40.8c0.8,19.3,2,38.6,3.6,57.8c13.7-6.9,55.2-33,76.9-59.5
	C292.7,504,292.3,489.6,291.7,475.2L291.7,475.2z M291.3,538.6c38.7,32.9,152.5-11.5,140-23.2c-8-7.5-33.8-122.9-34.7-145l0,0
	c-0.4-8.7-3.9-28.2,5.3-33.9c9.2-5.7,24.9-2.2,35.2-2.6c11.5-0.5,23-2.1,34.1-5.1c6.9-1.9,16.6-2.7,22.1-7.8
	c7.4-6.9,4.7-21.5,0.3-29.2c-4.8-8.4-13.9-8.8-22.6-9.5c-13.6-1-27-3.2-40.4-5.7c-41.1-7.7-81.2-18.8-115.2-44.1
	c-27.4-20.4-42.6-48.9-55.3-79.4c-7.3-17.6-14.1-35.3-23.4-52c-3.5-6.2-9.1-8.6-16.1-7.8c-6.9,0.8-10.4,5.3-12.7,11.4
	c-2.4,6.5-2.4,13.2-2,19.8c0.8,14.4,2.8,28.7,5.9,42.7c5.3,24.4,13.9,48,25.2,70.2c8.8,17.3,22.6,32.4,28,51.4
	c3.6,12.7,4.3,27,4.3,41.1 M330.9,361.5c1,0.5,4.7,4.4,6.9,8.2c1.8,3.2,1.1,5.9,0.7,11.7c-1.1,13.1-4.9,22.4-8.7,33.5
	c-6.4,19.1-17.8,32.7-36.5,51.1c-2.5,2.4-1.5,10.9-1.4,15c0.5,14.4,0.7,16,0.9,30.4 M535.3,337.6c-4,6.9-7.3,14.1-11.3,20.9
	c-9.4,16-21,29.3-40.6,32.8c-3.3,0.6-7,0.6-10.4,0.4c-4.4-0.2-9.1-1.4-13.1-3c-15.6-6.2-25.3-21.2-36-33.3c-1.7-1.9-3.3-3.9-5.1-5.7
	c-3.1-3-6.4-4.8-10.7-3.2c-4.2,1.7-6.3,5.1-6.8,9.4c-0.4,3.7,1.1,7.5,2.4,10.8c2.8,7.2,7.4,13.9,12.1,19.9
	c1.9,2.4,24.9,28.4,35.4,76.5c5.5,25,0,47.9,0,48.3c10.8-5.4,45.7-14.4,63.5-18.9c-0.2-11.4-0.6-58.3-1-69.6
	c-0.2-4.6,0.9-8.1,4.3-11.5c11.9-11.7,22.1-24.7,27.5-40.8c2.9-8.7,5.1-17.7,5.1-26.9C550.7,333.7,539,331.1,535.3,337.6
	L535.3,337.6z M474.5,336.3c-11.4-0.2-25,10.8-23.1,24.1c1.9,13.2,10.4,24.1,23.1,24.1c12.8,0,23.1-10.8,23.1-24.1
	C497.7,347.1,489.4,336.6,474.5,336.3z"/>
<g id="Groupe_12" transform="translate(0 0)">
	<g>
		<defs>
			<rect id="SVGID_1_" x="589" y="23.5" width="85.2" height="103.1"/>
		</defs>
		<clipPath id="SVGID_00000160190225279580216350000000387804202208579512_">
			<use xlink:href="#SVGID_1_"  style="overflow:visible;"/>
		</clipPath>
		
			<g id="Groupe_11" transform="translate(0 0)" style="clip-path:url(#SVGID_00000160190225279580216350000000387804202208579512_);">
			<path id="Tracé_8" class="st2" d="M635.7,53c5.9,0,10.7-4.8,10.7-10.7s-4.8-10.7-10.7-10.7S625,36.4,625,42.3c0,0,0,0,0,0
				C625,48.2,629.8,53,635.7,53C635.7,53,635.7,53,635.7,53z M619,83c0-4.5-3.6-8.1-8.1-8.1s-8.1,3.6-8.1,8.1c0,4.5,3.6,8.1,8.1,8.1
				C615.4,91.1,619,87.4,619,83z M619.6,103.5c-0.1-1.1,0.3-2.2,1.1-3c3.2-2.9,5.7-6.6,7.2-10.7c0.7-2.3,1.2-4.6,1.3-7
				c0-0.4,0-0.7-0.1-1.1c-0.3-0.7-0.8-1.3-1.4-1.7c-1.2-0.5-1.7-0.2-2.5,1.2c-1,1.8-1.9,3.7-3,5.5c-2.4,4.2-5.5,7.7-10.6,8.5
				c-0.9,0.1-1.8,0.2-2.7,0.1c-1.2-0.1-2.3-0.3-3.4-0.8c-4.1-1.6-6.6-5.5-9.4-8.7c-0.4-0.5-0.9-1-1.3-1.5c-0.6-0.9-1.8-1.2-2.8-0.8
				c-1,0.4-1.7,1.4-1.8,2.5c0,1,0.2,1.9,0.6,2.8c0.8,1.9,1.9,3.6,3.2,5.2c0.5,0.6,1,1.2,1.5,1.8c1,1.1,1.9,2.1,3,3.2
				c0.9,1,1.9,2,3,2.8c0.7,0.7,1.1,1.5,1.3,2.5c0.2,3.2,0.4,5.2,0.5,8.4c0.2,4,0.4,8,0.7,11.9c2.8-1.4,11.4-6.8,15.9-12.3
				C619.8,109.4,619.7,106.5,619.6,103.5L619.6,103.5z M619.5,116.6c8,6.8,31.5-2.4,28.9-4.8c-1.7-1.6-7-25.4-7.2-29.9l0,0
				c-0.1-1.8-0.8-5.8,1.1-7c1.9-1.2,5.1-0.4,7.3-0.5c2.4-0.1,4.7-0.4,7-1.1c1.4-0.4,3.4-0.5,4.6-1.6c1.5-1.4,1-4.4,0.1-6
				c-1-1.7-2.9-1.8-4.7-2c-2.8-0.2-5.6-0.6-8.3-1.2c-8.5-1.6-16.7-3.9-23.8-9.1c-5.7-4.2-8.8-10.1-11.4-16.4
				c-1.4-3.7-3-7.3-4.8-10.7c-0.6-1.2-2-1.9-3.3-1.6c-1.3,0.2-2.3,1.1-2.6,2.3c-0.4,1.3-0.6,2.7-0.4,4.1c0.2,3,0.6,5.9,1.2,8.8
				c1.1,5,2.9,9.9,5.2,14.5c1.8,3.6,4.7,6.7,5.8,10.6c0.7,2.8,1,5.6,0.9,8.5 M627.6,80c0.6,0.5,1.1,1.1,1.4,1.7
				c0.4,0.7,0.2,1.2,0.1,2.4c-0.3,2.4-0.9,4.7-1.8,6.9c-1.3,3.9-3.7,6.8-7.5,10.5c-0.5,0.5-0.3,2.3-0.3,3.1c0.1,3,0.1,3.3,0.2,6.3
				 M669.8,75.1c-0.8,1.4-1.5,2.9-2.3,4.3c-1.9,3.3-4.3,6.1-8.4,6.8c-0.7,0.1-1.4,0.1-2.1,0.1c-0.9-0.1-1.8-0.3-2.7-0.6
				c-3.2-1.3-5.2-4.4-7.4-6.9c-0.4-0.4-0.7-0.8-1.1-1.2c-0.5-0.7-1.4-0.9-2.2-0.7c-0.8,0.3-1.4,1.1-1.4,1.9c0,0.8,0.2,1.5,0.5,2.2
				c0.6,1.5,1.5,2.9,2.5,4.1c0.4,0.5,5.1,5.8,7.3,15.8c0.7,3.3,0.7,6.7,0,10c2.2-1.1,9.4-3,13.1-3.9c0-2.3-0.1-12-0.2-14.4
				c-0.1-0.9,0.2-1.8,0.9-2.4c2.5-2.3,4.5-5.2,5.7-8.4c0.6-1.8,1-3.6,1.1-5.5C673,74.3,670.6,73.8,669.8,75.1z M657.3,74.9
				c-2.3,0-5.2,2.2-4.8,5c0.4,2.7,2.1,5,4.8,5c2.7-0.1,4.8-2.3,4.8-5c0.2-2.6-1.8-4.8-4.3-5C657.6,74.9,657.4,74.8,657.3,74.9z"/>
		</g>
	</g>
</g>
</svg>
